<?xml version="1.0" encoding="iso-8859-1"?>
<!-- Generator: Adobe Illustrator 19.0.0, SVG Export Plug-In . SVG Version: 6.00 Build 0)  -->
<svg xmlns="http://www.w3.org/2000/svg" xmlns:xlink="http://www.w3.org/1999/xlink" version="1.1" id="Capa_1" x="0px" y="0px" viewBox="0 0 512 512" style="enable-background:new 0 0 512 512;" xml:space="preserve" width="512px" height="512px">
<g>
	<g>
		<g>
			<path d="M512,450.853l-45.009-45.01l-10.605,10.606l34.405,34.404l-26.273,26.273L345.44,358.051l26.273-26.273l74.068,74.067     l10.605-10.606l-84.673-84.672l-9.243,9.243L160.36,121.718l-10.499,10.712l202.001,197.987l-7.784,7.784L42.397,30.4     l1.667-1.667l95.087,93.198l10.499-10.712L43.958,7.629L21.291,30.295L48.593,58.15v202.994h14.998V94.421l9.476,9.477     l10.285-10.285l83.45,85.142l-9.438,9.438l10.605,10.606l9.332-9.332l83.45,85.143l-8.486,8.486l10.605,10.606l8.38-8.38     l62.223,63.485l-9.244,9.244l1.099,1.099c-1.941-0.267-3.92-0.417-5.932-0.417c-4.156,0-8.27,0.59-12.227,1.752l4.227,14.391     c2.584-0.76,5.276-1.145,8-1.145c15.623,0,28.333,12.71,28.333,28.333c0,13.026-8.84,24.021-20.833,27.318v-27.318h-14.998     v27.318c-11.994-3.297-20.833-14.291-20.833-27.318c0-8.322,3.64-16.191,9.986-21.592l-9.72-11.423     c-9.701,8.255-15.265,20.287-15.265,33.015c0,21.334,15.502,39.104,35.832,42.668v15.935     c-8.728,3.096-14.998,11.432-14.998,21.207c0,12.404,10.092,22.497,22.497,22.497c12.405,0,22.497-10.093,22.497-22.497     c0-9.776-6.27-18.112-14.998-21.207v-15.935c20.329-3.564,35.832-21.333,35.832-42.668c0-2.014-0.149-3.991-0.417-5.933     l102.206,102.205L512,450.853z M63.591,92.163V73.452l9.262,9.449L63.591,92.163z M326.896,481.875     c0,4.135-3.365,7.499-7.499,7.499c-4.135,0-7.499-3.364-7.499-7.499s3.364-7.499,7.499-7.499     C323.532,474.376,326.896,477.739,326.896,481.875z" fill="#91DC5A"/>
			
				<rect x="367.699" y="354.044" transform="matrix(-0.7071 -0.7071 0.7071 -0.7071 384.8532 882.4974)" width="14.998" height="14.998" fill="#91DC5A"/>
			
				<rect x="385.379" y="371.71" transform="matrix(0.7071 0.7071 -0.7071 0.7071 383.2108 -166.7388)" width="14.998" height="14.998" fill="#91DC5A"/>
			
				<rect x="393.598" y="412.232" transform="matrix(0.7071 0.7071 -0.7071 0.7071 423.7386 -183.5326)" width="79.629" height="14.998" fill="#91DC5A"/>
			<rect x="48.593" y="271.147" width="14.998" height="14.998" fill="#91DC5A"/>
			<rect x="47.77" y="356.816" width="14.998" height="40.578" fill="#91DC5A"/>
			<path d="M83.16,415.253c11.707-11.707,18.154-27.271,18.154-43.827c0-13.959-4.766-27.642-13.422-38.525l-11.739,9.335     c6.553,8.241,10.163,18.608,10.163,29.19c0,12.549-4.887,24.348-13.76,33.222l-16.463,16.463L39.63,404.649     c-8.874-8.875-13.761-20.673-13.761-33.223s4.887-24.347,13.761-33.221l16.462-16.463l10.281,10.281l10.605-10.606     l-13.386-13.386V296.14H48.593v11.893L29.024,327.6c-11.707,11.708-18.154,27.272-18.154,43.827     c0,16.556,6.447,32.12,18.154,43.828l17.71,17.709L0,491.874h112.185L65.45,432.964L83.16,415.253z M81.142,476.876h-50.1     l25.05-31.577L81.142,476.876z" fill="#91DC5A"/>
			<rect x="348.807" y="145.342" width="14.998" height="14.998" fill="#91DC5A"/>
			<rect x="373.804" y="145.342" width="45.779" height="14.998" fill="#91DC5A"/>
			<rect x="323.81" y="145.342" width="14.998" height="14.998" fill="#91DC5A"/>
			<path d="M309.763,186.307h34.687v-14.998h-34.687c-20.542,0-37.253-16.712-37.253-37.253c0-19.179,14.362-35.11,33.409-37.058     l6.736-0.688v-6.771l-0.003-0.234c0-24.402,19.852-44.255,44.254-44.255c18.436,0,35.121,11.613,41.516,28.896l3.086,8.339     l7.698-4.447c2-1.155,4.28-1.766,6.597-1.766c7.261,0,13.174,5.879,13.23,13.127l-0.002,7.234l7.019,0.45     c19.528,1.253,34.825,17.581,34.825,37.172c0,20.542-16.712,37.253-37.253,37.253h-74.174v14.998h74.174     c28.811,0,52.252-23.439,52.252-52.252c0-25.354-18.274-46.812-42.621-51.36c-2.982-12.39-14.157-21.622-27.449-21.622     c-2.163,0-4.313,0.25-6.403,0.737c-10.124-19.264-30.366-31.76-52.495-31.76c-30.588,0-55.837,23.301-58.933,53.083     c-23.47,5.362-40.461,26.223-40.461,50.922C257.511,162.868,280.951,186.307,309.763,186.307z" fill="#91DC5A"/>
		</g>
	</g>
</g>
<g>
</g>
<g>
</g>
<g>
</g>
<g>
</g>
<g>
</g>
<g>
</g>
<g>
</g>
<g>
</g>
<g>
</g>
<g>
</g>
<g>
</g>
<g>
</g>
<g>
</g>
<g>
</g>
<g>
</g>
</svg>
